<?xml version="1.0" encoding="utf-8"?>
<!-- Generator: Adobe Illustrator 16.0.0, SVG Export Plug-In . SVG Version: 6.00 Build 0)  -->
<!DOCTYPE svg PUBLIC "-//W3C//DTD SVG 1.1//EN" "http://www.w3.org/Graphics/SVG/1.1/DTD/svg11.dtd">
<svg version="1.1" id="Layer_1" xmlns="http://www.w3.org/2000/svg" xmlns:xlink="http://www.w3.org/1999/xlink" x="0px" y="0px"
	 width="280.629px" height="116.129px" viewBox="0 0 280.629 116.129" enable-background="new 0 0 280.629 116.129"
	 xml:space="preserve">
<path fill="#2a50a2" d="M51.776,5.395L45.46,56.731c-1.148,8.957-2.184,16.308-7.926,21.591c-5.053,4.708-10.91,5.397-15.619,5.397
	c-2.41,0-7.234-0.229-11.369-2.297c-2.066-1.033-4.594-2.872-6.545-4.824l10.336-10.91c2.064,3.675,5.168,4.135,7.119,4.135
	c1.953,0,3.904-0.574,5.512-2.182c2.643-2.642,3.102-7.695,3.791-12.863l6.086-49.383H51.776z"/>
<polygon fill="#2a50a2" points="186.041,46.663 164.91,5.09 181.906,5.09 194.998,31.733 214.752,5.09 233.127,5.09 200.971,46.663
	196.721,81.69 181.791,81.69 "/>
<path fill="#2a50a2" d="M266.93,22.546C264.861,19.445,260.957,16,254.641,16c-4.135,0-6.66,1.263-8.154,2.641
	c-1.838,1.608-2.986,3.79-2.986,6.431c0,2.527,1.033,4.365,3.217,5.857c1.492,1.034,3.443,1.838,7.234,3.446l5.168,2.182
	c2.986,1.263,6.547,3.216,9.533,6.431c3.445,3.675,4.707,7.236,4.707,12.288c0,8.384-3.215,16.193-8.154,20.902
	c-6.314,6.087-14.584,7.234-20.9,7.234c-5.857,0-10.795-1.147-15.734-4.363c-3.904-2.526-7.35-6.432-9.762-10.106l10.91-9.302
	c1.148,2.182,3.332,5.282,5.398,7.005c2.986,2.527,6.201,3.216,9.646,3.216c2.986,0,7.006-0.46,9.99-3.79
	c1.609-1.723,2.873-4.249,2.873-7.924c0-2.756-0.92-4.938-3.445-7.006c-2.527-2.067-4.824-2.527-7.811-3.79l-4.363-1.838
	c-4.824-2.067-7.58-3.905-9.303-5.627c-4.02-3.905-4.709-8.613-4.709-12.633c0-5.972,1.723-11.714,6.547-16.538
	c6.201-6.201,14.012-7.351,20.787-7.351c4.938,0,13.436,0.805,20.672,8.958L266.93,22.546z"/>
<g>
	<path fill="#2a50a2" d="M109.819,32.853c2,1.919,3.518,4.917,3.518,8.874c0,4.237-1.598,8.435-4.277,11.192
		c-2.117,2.199-5.715,4.357-11.111,4.357c-5.236,0-8.234-2.119-9.795-3.718c-2.197-2.239-3.518-5.477-3.518-8.833
		c0-4.398,1.84-8.516,4.598-11.114c2.799-2.638,6.955-4.197,11.354-4.197C104.384,29.415,107.702,30.814,109.819,32.853"/>
	<path fill="#2a50a2" d="M175.063,42.726c0.02-0.333,0.033-0.665,0.033-0.999c0-0.002,0-0.004,0-0.006s0-0.004,0-0.005
		c0-3.977-1.52-6.989-3.518-8.918c-2.119-2.048-5.438-3.454-9.234-3.454c-4.398,0-8.555,1.566-11.352,4.218
		c-1.9,1.798-3.361,4.321-4.088,7.16v0.001c-0.057,0.224-0.109,0.449-0.156,0.676c-0.008,0.04-0.018,0.08-0.027,0.119
		c-0.035,0.177-0.064,0.355-0.096,0.533c-0.096,0.561-0.162,1.129-0.197,1.704c-0.002,0.021-0.004,0.041-0.006,0.062l0,0
		c-0.018,0.301-0.027,0.604-0.027,0.909c0,3.356,1.318,6.594,3.518,8.833c1.559,1.599,4.557,3.718,9.793,3.718
		c5.396,0,8.994-2.158,11.113-4.357c2.236-2.302,3.715-5.608,4.145-9.103l0,0c0-0.001,0-0.002,0-0.003
		c0.039-0.323,0.07-0.648,0.092-0.975C175.057,42.801,175.059,42.764,175.063,42.726z"/>
	<path fill="#2a50a2" d="M140.052,32.721c-1.23-8.429-4.996-14.983-9.676-19.477c-6.088-5.857-15.619-9.877-26.529-9.877
		c-9.951,0-19.471,2.78-26.994,7.664c-2.029,1.317-3.914,2.786-5.623,4.396c-1.557,1.466-3.01,3.103-4.342,4.879
		c-1.305,1.74-2.492,3.614-3.545,5.599c-3.344,6.308-5.32,13.727-5.32,21.449c0,5.294,1.143,10.484,3.217,15.153
		c1.24,2.793,2.814,5.398,4.678,7.729c0.627,0.784,1.289,1.533,1.98,2.252c0.078,0.081,0.152,0.167,0.23,0.247
		c2.072,2.124,5.041,4.562,9.111,6.571c2.299,1.135,4.945,2.135,7.992,2.862c0,0,6.998,1.823,16.074,1.009
		c4.045-0.372,7.688-1.183,10.949-2.294c5.07-1.727,9.215-4.183,12.518-6.856c1.26-1.021,2.402-2.073,3.42-3.13
		c0.023-0.022,0.045-0.047,0.066-0.069c4.016-4.156,7.18-9.44,9.281-15.276c0.809-2.246,1.461-4.573,1.943-6.949
		c0.652-3.225,0.998-6.539,0.998-9.861C140.481,36.639,140.331,34.632,140.052,32.721z M115.905,62.284
		c-0.184,0.178-0.377,0.352-0.566,0.525c-2.191,2.015-4.791,3.721-7.723,4.948c-2.283,0.956-4.764,1.627-7.41,1.925h-6.258
		c-3.365-0.379-6.465-1.369-9.162-2.855c-1.951-1.076-3.695-2.411-5.172-3.97c-0.219-0.228-0.438-0.472-0.656-0.724
		c-0.404-0.469-0.807-0.976-1.197-1.529c-1.004-1.412-1.938-3.109-2.674-5.113c-0.945-2.576-1.561-5.657-1.561-9.286
		c0-4.879,1.049-9.673,3.104-13.92c0.592-1.224,1.271-2.399,2.029-3.521c1.072-1.583,2.305-3.058,3.711-4.381
		c0.711-0.674,1.482-1.32,2.303-1.935c4.213-3.158,9.84-5.415,16.762-5.415c8.383,0,14.125,3.216,17.455,6.66
		c2.992,3.087,5.246,7.556,5.893,12.99c0.123,1.035,0.195,2.102,0.195,3.204c0,2.28-0.256,4.541-0.725,6.736
		c-0.311,1.45-0.709,2.872-1.201,4.248c-1.311,3.67-3.248,7.017-5.635,9.783C116.929,61.221,116.429,61.771,115.905,62.284z"/>
	<path fill="#2a50a2" d="M151.82,69.683c-0.033,8.57-3.582,16.9-9.068,22.271c-4.597,4.479-11.142,7.58-18.837,7.58
		c-7.121,0-13.322-2.641-17.457-7.006c-1.568-1.628-3.162-3.898-4.328-6.863c-0.197,0.021-0.395,0.045-0.594,0.063
		c-1.625,0.146-3.295,0.22-4.963,0.22c-5.047,0-9.006-0.665-10.854-1.045c1.447,6.698,4.686,12.852,9.254,17.502
		c4.479,4.594,13.092,10.681,28.137,10.681c15.506,0,25.843-6.202,31.929-12.519c7.428-7.647,11.951-19.148,12.26-30.885H151.82z"/>
</g>
</svg>
